# xmcd CD database file
#
# Track frame offsets:
#	150
#	14504
#	28265
#	42716
#	61147
#	80038
#	92049
#	109066
#	125179
#	140701
#	157024
#	173469
#	187553
#	211307
#	228094
#	246657
#
# Disc length: 3551 seconds
#
# Revision: 1
# Processed by: cddbd v1.5.2PL0 Copyright (c) Steve Scherf et al.
# Submitted via: CDex 1.79
#
DISCID=e10ddd10
DTITLE=Katie Grant - I`m On My Way
DYEAR=2006
DGENRE=Country
TTITLE0=I`m On My Way
TTITLE1=Right After Midnight
TTITLE2=Mother And Child
TTITLE3=Never Give You Up (featuring Larry Schuba)
TTITLE4=Smaland Highland
TTITLE5=One Day You`re Knocking At My Door
TTITLE6=Listen To Your Heart
TTITLE7=Never Thought
TTITLE8=Up There
TTITLE9=I Never Knew
TTITLE10=Our Song Again
TTITLE11=That's What Country's All About
TTITLE12=All Alone
TTITLE13='Cause Of You I'm Alive
TTITLE14=My Memories Back
TTITLE15=Land Of Lakes
EXTD=YEAR: 2006
EXTT0=
EXTT1=
EXTT2=
EXTT3=
EXTT4=
EXTT5=
EXTT6=
EXTT7=
EXTT8=
EXTT9=
EXTT10=
EXTT11=
EXTT12=
EXTT13=
EXTT14=
EXTT15=
PLAYORDER=
